# xmcd
#
# Track frame offsets:
#	182
#	9275
#	29292
#	39780
#	52812
#	71132
#	86670
#	101195
#	114452
#	125890
#	137265
#	149465
#	165422
#	188345
#	207897
#	222930
#
# Disc length: 3119
#
# Revision: 2
# Processed by: cddbd v1.5.1PL0 Copyright (c) Steve Scherf et al.
# Submitted via: CDex 1.50beta9
# Normalized: r1:TDELIM( - )
#
DISCID=d50c2d10
DTITLE=Various Artist - Country Classics - Cd1
DYEAR=1988
DGENRE=Country
TTITLE0=Frankie Laine - Rawhide
TTITLE1=Willie Nelson and Carlos Santana - They All Went To Mexico
TTITLE2=Nancy Sinatra and Lee Hazlewood - Oh Lonesome Me
TTITLE3=Kenny Rogers - Ruby Don't Take Your Love To Town
TTITLE4=Don Williams - I Believe In You
TTITLE5=Lynn Anderson - For The Good Times
TTITLE6=Ben Steneker and Sandra Vanreys - If I Needed You
TTITLE7=Tammy Wynette - D.I.V.O.R.C.E.
TTITLE8=Johnny Cash - A Thing Called Love
TTITLE9=Charlie Rich - Daddy Don't You Walk So Fast
TTITLE10=Freddy Fender - Vaya Con Dios
TTITLE11=Eagles - Desperado
TTITLE12=Ry Cooder - He'll Have To Go
TTITLE13=Marty Robins - El Paso
TTITLE14=Johnny Paycheck - Mr. Bojangles
TTITLE15=Roger Miles - King Of The Road
EXTD=YEAR: 1988
EXTT0=
EXTT1=
EXTT2=
EXTT3=
EXTT4=
EXTT5=
EXTT6=
EXTT7=
EXTT8=
EXTT9=
EXTT10=
EXTT11=
EXTT12=
EXTT13=
EXTT14=
EXTT15=
PLAYORDER=
